<?xml version="1.0" encoding="UTF-8"?>
<svg id="Calque_2" data-name="Calque 2" xmlns="http://www.w3.org/2000/svg" viewBox="0 0 512 512">
  <defs>
    <style>
      .cls-1 {
        fill: #deddda;
      }

      .cls-2 {
        fill: #fff;
      }

      .cls-3 {
        fill: #99c1f1;
      }
    </style>
  </defs>
  <g id="Calque_1-2" data-name="Calque 1">
    <g>
      <rect class="cls-1" width="512" height="512" rx="51" ry="51"/>
      <g>
        <g id="g413">
          <path id="path1232" d="M251.22,26.02c-34.75.57-70.08,8.79-93.89,41.76-25.99,36-18.8,68.42-19.84,79.86s-78.79,144.61-68.44,163.62c5.78,10.62,31.52-6.34,32.04,8.74.52,15.08-25.15,166,153.57,166,.46,0,2.24,0,2.68,0,178.72.89,153.05-150.92,153.57-166s26.25,1.89,32.04-8.74c10.35-19.01-67.4-152.18-68.44-163.62s6.16-43.86-19.84-79.86c-23.81-32.97-59.13-41.22-93.89-41.76-1.81-.03-8.09-.02-9.56,0Z"/>
          <path id="path1238" class="cls-2" d="M186.77,185.88c17.58-.57,50.75,24.86,65.87,29.88,1.62.43,2.2.79,3.36.79s1.85-.38,3.36-.79c15.66-5.19,50.69-32.29,67.69-29.71,18.8,2.85,3.21,31.05,11.22,51.79,20.16,52.2,47.25,133.07,18.33,180.14-8.99,14.63-29.87,39.95-95.94,40.58-1.56.01-7.79.01-9.35,0-66.07-.63-86.95-25.94-95.94-40.58-28.91-47.07-1.83-127.94,18.33-180.14,8.01-20.74-7.57-48.95,11.22-51.79.59-.09,1.19-.14,1.82-.16Z"/>
        </g>
        <g id="layer10">
          <g id="layer4">
            <g id="g334">
              <path id="path4160" class="cls-2" d="M197.75,108.19c9.45,0,17.11,7.66,17.11,17.11s-7.66,17.11-17.11,17.11-17.11-7.66-17.11-17.11,7.66-17.11,17.11-17.11Z"/>
              <path id="path4158" class="cls-2" d="M314.25,108.19c9.45,0,17.11,7.66,17.11,17.11s-7.66,17.11-17.11,17.11-17.11-7.66-17.11-17.11,7.66-17.11,17.11-17.11Z"/>
            </g>
          </g>
        </g>
        <path class="cls-3" d="M250.13,229.05c2.65-1.32,6.09.95,5.91,3.91.04,17.85-.02,35.7.03,53.54,0,1.57,2.31,2.22,3.22.98,9.24-9.22,18.46-18.45,27.71-27.66,1.51-1.68,4.37-1.69,5.94-.07,5.64,5.63,11.27,11.28,16.91,16.91,3.91,4.02,8,7.85,11.81,11.96,9.93,10.85,17.09,24.23,20.55,38.53,3.49,14.27,3.38,29.42-.38,43.63-3.11,11.83-8.7,23.02-16.37,32.56-3.18,4.08-6.87,7.69-10.55,11.3-1.59,1.52-4.32,1.49-5.91,0-8.52-9.88-19.72-17.5-32.22-21.34-15.67-4.97-33.13-4.08-48.21,2.46-9.65,4.14-18.31,10.54-25.16,18.49-1.47,1.76-4.34,2.02-6.1.56-4.26-4.14-8.49-8.35-12.03-13.13-9.96-12.99-16.09-28.85-17.6-45.14-2.12-21.83,4.21-44.38,17.59-61.78,4.36-5.88,9.74-10.85,14.86-16.04,15.76-15.76,31.51-31.51,47.25-47.29.88-.83,1.64-1.86,2.76-2.39ZM253.85,315.97c-9.48.63-18.33,6.51-22.69,14.93-3.14,5.94-4.02,13.04-2.45,19.57,1.58,6.72,5.78,12.78,11.48,16.67,9.31,6.56,22.65,6.48,31.88-.18,4.96-3.44,8.74-8.54,10.61-14.27,1.71-5.19,1.84-10.89.4-16.16-1.78-6.64-6.16-12.5-11.94-16.2-5.08-3.28-11.26-4.82-17.28-4.35Z"/>
      </g>
    </g>
  </g>
</svg>